<?xml version="1.0" encoding="utf-8"?>
<!-- Generator: Adobe Illustrator 24.0.2, SVG Export Plug-In . SVG Version: 6.00 Build 0)  -->
<svg version="1.1" id="Layer_1" xmlns="http://www.w3.org/2000/svg" xmlns:xlink="http://www.w3.org/1999/xlink" x="0px" y="0px"
	 viewBox="0 0 512 512" style="enable-background:new 0 0 512 512;" xml:space="preserve">
<style type="text/css">
	.st0{fill:#7D5351;}
</style>
<g>
	<g>
		<path class="st0" d="M284.3231,187.4532c-11.0763-9.1717-19.7107-21.2659-24.7871-34.7208
			c-4.7148-12.4966-6.7605-26.0982-9.5541-39.2429c-2.905-13.6701-7.2234-26.0705-14.6318-37.9613
			c-5.4273-8.7115-10.8548-17.4224-16.2825-26.1337c5.0782,2.7898,9.3244,6.8475,13.49,10.8749
			c8.7287,8.4404,17.4215,17.0029,24.6584,26.752c7.2372,9.7496,13.0142,20.8036,15.2266,32.7424"/>
	</g>
	<g>
		<path class="st0" d="M265.1848,334.0886c11.5768-15.5183,29.6222-24.5328,46.4827-34.0493
			c16.8612-9.5163,34.0793-21.1095,41.6297-38.9375c4.4182-10.4327,5.0632-22.0156,5.6485-33.3298
			c-5.2001,11.1229-13.4288,20.8118-23.5629,27.744c-1.1447,0.7825-2.3405,1.5577-3.1412,2.6896
			c-0.6879,0.9716-1.033,2.1364-1.4021,3.2685c-3.6002,11.034-10.4238,20.7956-18.4253,29.2029
			c-8.0017,8.4068-17.197,15.5721-26.3539,22.7032"/>
	</g>
	<g>
		<path class="st0" d="M257.757,399.478c-8.9618-10.1184-22.8958-13.7846-35.2457-19.278
			c-26.2269-11.6667-47.6376-33.7685-58.465-60.3528c-3.3514-8.2286-5.8918-17.1308-11.9389-23.64
			c10.7381,10.6969,21.5195,21.4312,33.6189,30.5599c3.2689,2.4666,6.6373,4.8184,9.6579,7.584
			c12.0762,11.0592,19.6374,27.0646,31.6225,38.223c7.0159,6.5316,13.9184,11.5641,20.9404,18.0898"/>
	</g>
	<g>
		<path class="st0" d="M267.8432,479.9961c0.8408-6.6128,4.843-12.4661,9.7027-17.0288s10.5991-8.058,16.0495-11.8958
			c12.5656-8.8471,23.8812-19.8351,31.3657-33.2568c7.4845-13.4217,10.901-29.4434,7.5978-44.4518
			c-5.0845,10.5973-10.2375,21.3034-17.6356,30.4367c-2.7097,3.3444-5.727,6.4893-7.8152,10.2533
			c-1.9532,3.521-3.02,7.456-4.6111,11.1551c-6.9185,16.0838-23.0849,26.5086-31.067,42.0923"/>
	</g>
	<g>
		<path class="st0" d="M253.4097,317.1605c-2.183-20.3059-3.1231-40.6317-3.3479-61.0461c-0.0075-0.6786-1.0199-0.6735-1.0504,0
			c-0.9296,20.5723,0.3178,40.8367,3.2079,61.2072C252.3143,317.9906,253.4828,317.8402,253.4097,317.1605L253.4097,317.1605z"/>
	</g>
	<g>
		<g>
			<path class="st0" d="M285.0819,188.0199c-3.7743,44.2866-17.0533,87.2906-21.8867,131.5622
				c-5.8785,53.845-5.6605,108.6491,1.5427,162.3606c0.3552,2.6484,4.5584,2.7308,4.2418,0
				c-6.265-54.0454-7.8893-108.1328-2.7127-162.3606c4.2099-44.1013,18.5296-87.3569,20.1076-131.5622
				C286.4047,187.1791,285.1516,187.2021,285.0819,188.0199L285.0819,188.0199z"/>
		</g>
		<g>
			<path class="st0" d="M285.3963,188.0525c-9.7181-48.759-23.8477-111.2229,1.8441-157.4255
				c-0.9782-0.4124-1.9564-0.8248-2.9346-1.2372c-3.9998,23.2519,5.7301,48.6553,9.3755,71.5133
				c4.9517,31.0485,2.2332,57.595-9.2386,86.7624c-0.6311,1.6045,1.9334,2.2728,2.5711,0.7088
				c9.7882-24.0064,14.7871-45.4184,12.1432-71.6952c-2.7792-27.6213-16.451-58.889-11.7548-86.4357
				c0.2877-1.6876-1.9912-2.9397-2.9346-1.2372c-12.4351,22.4418-14.1377,49.1925-13.7522,74.433
				c0.438,28.6783,4.9185,57.5759,13.4733,84.9462C284.4309,189.1602,285.5532,188.8394,285.3963,188.0525L285.3963,188.0525z"/>
		</g>
		<g>
			<path class="st0" d="M281.1525,74.9622c1.9756,37.5138,0.5527,75.7072,3.687,113.0577c0.0968,1.1538,1.6507,1.1307,1.7776,0
				c4.1002-36.5469,0.0025-76.6266-4.091-113.0577C282.4298,74.1051,281.1052,74.0626,281.1525,74.9622L281.1525,74.9622z"/>
		</g>
		<g>
			<path class="st0" d="M278.0331,289.7465c18.4001-30.5411,48.8451-52.108,66.5363-82.7135
				c-1.5752-0.6641-3.1505-1.3282-4.7256-1.9923c-5.458,29.3882-8.791,59.9218-29.9016,82.953
				c-14.5725,15.8983-34.6009,25.0119-47.7498,42.4418c1.5752,0.6641,3.1504,1.3282,4.7256,1.9923
				C269.7149,316.8669,270.3044,304.232,278.0331,289.7465c1.566-2.9351-2.8962-5.5502-4.465-2.6099
				c-7.9542,14.908-8.7464,27.8379-11.6365,43.9165c-0.5343,2.9725,2.9534,4.3416,4.7256,1.9923
				c14.9355-19.7981,39.0569-29.4947,53.7129-49.7151c16.3675-22.5818,19.504-50.2303,24.4598-76.9149
				c0.5125-2.7596-3.1789-4.6681-4.7256-1.9923c-17.6361,30.5102-48.1693,52.2272-66.5363,82.7135
				C271.8465,289.9943,276.3159,292.5967,278.0331,289.7465z"/>
		</g>
		<g>
			<path class="st0" d="M261.229,403.1783c-3.3037-12.9806-4.4679-26.8911-9.8339-39.2536
				c-4.5877-10.5694-11.1358-21.1366-18.1058-30.2605c-8.1926-10.7245-17.0847-20.4829-22.6484-32.913
				c-2.2982-5.1344-4.1109-10.5075-6.6694-15.5241c-3.4363-6.7378-9.0641-12.102-11.5296-19.349
				c-0.7054-2.0736-3.7791-1.249-3.2921,0.9076c3.4142,15.1203,6.4578,30.3088,8.9917,45.6026
				c2.1528,12.9937,3.4573,26.4908,9.4289,38.4294c5.1075,10.2108,13.0893,18.382,21.742,25.6755
				c10.1965,8.5949,23.7981,15.0718,29.3163,27.7306c0.7449,1.7089,3.2617,0.2331,2.5116-1.4681
				c-3.6108-8.1884-9.7372-12.8695-16.7003-18.1712c-11.9615-9.1074-23.8492-18.1231-31.5756-31.3529
				c-7.5101-12.8594-8.9344-27.3935-11.3403-41.7757c-2.5574-15.2879-5.6379-30.4664-9.0821-45.5777
				c-1.0974,0.3025-2.1947,0.605-3.2921,0.9076c3.7117,10.8386,11.901,19.9088,16.4479,30.6779
				c4.2012,9.9501,9.434,18.604,16.2016,27.0546c8.816,11.0083,17.0886,21.7833,23.8348,34.2128
				c7.6312,14.06,9.8005,29.6287,14.3873,44.7802C260.2545,404.2813,261.4285,403.9622,261.229,403.1783L261.229,403.1783z"/>
		</g>
		<g>
			<path class="st0" d="M267.4273,481.1024c3.3275-15.7836,14.7763-26.0826,24.3225-38.2784
				c6.8289-8.7245,12.4197-18.343,16.6358-28.5898c9.9374-24.1522,11.7641-50.3665,6.3911-75.8126
				c-0.2664-1.2619-1.9844-1.0524-2.3527,0c-9.345,26.7077-28.241,48.0254-39.9766,73.5107
				c-10.1909,22.1309-12.2694,45.625-7.1627,69.3419c0.3889,1.8063,3.1405,1.0396,2.7658-0.7625
				c-6.5099-31.3123,1.2178-59.1975,17.2173-86.1057c6.5661-11.043,13.8309-21.6818,19.8696-33.0349
				c2.1403-4.0239,3.539-9.4273,6.2104-12.9695c3.9353-5.2181,0.3175-7.2682,2.9454,0.0952
				c4.2685,11.9603,1.2878,30.1694-1.1025,42.3204c-2.7386,13.9224-7.9865,27.4248-15.359,39.544
				c-10.2793,16.8976-28.7635,29.8416-31.9237,50.3223C265.757,481.6622,267.2144,482.112,267.4273,481.1024L267.4273,481.1024z"/>
		</g>
		<g>
			<path class="st0" d="M286.6991,345.5223c-17.325,33.231-26.1308,71.2695-21.6798,108.7447c0.0864,0.7277,1.2045,0.771,1.1716,0
				c-1.6272-38.1148,4.149-73.9405,21.2408-108.3165C287.6732,345.4646,286.9529,345.0356,286.6991,345.5223L286.6991,345.5223z"/>
		</g>
		<g>
			<path class="st0" d="M260.0873,395.6964c-1.6129-28.0909-1.5988-56.8238-7.6061-84.4477
				c-5.2933-24.3406-15.4849-48.2367-27.6331-69.9271c-0.4911-0.8769-1.7307-0.1071-1.3255,0.7748
				c10.3538,22.5375,20.6099,45.6349,25.8483,70.0098c5.8421,27.1842,6.711,55.9388,9.1409,83.5902
				C258.5993,396.6926,260.146,396.7187,260.0873,395.6964L260.0873,395.6964z"/>
		</g>
		<g>
			<path class="st0" d="M325.1193,167.5329c-24.5914,42.0292-49.3264,89.9746-58.0223,138.3322
				c-0.227,1.2622,1.5677,1.8016,1.9478,0.537c14.4981-48.2371,31.9668-94.3565,56.9466-138.3594
				C326.3127,167.4765,325.4479,166.9713,325.1193,167.5329L325.1193,167.5329z"/>
		</g>
		<g>
			<path class="st0" d="M338.4313,185.679c-21.9408,20.9136-43.7196,45.3051-57.811,72.3699
				c-0.3887,0.7465,0.6415,1.3286,1.1162,0.6525c17.917-25.5192,35.1652-50.2187,57.3803-72.3367
				C339.5603,185.9231,338.883,185.2485,338.4313,185.679L338.4313,185.679z"/>
		</g>
		<g>
			<path class="st0" d="M338.6842,184.4233c-3.7051-3.4998-0.7887-9.6704,1.5259-13.1558c1.1623-1.7503,2.4933-3.4144,4.226-4.627
				c3.2838-2.2981,8.6161-3.8109,10.164,1.3389c1.2002,3.993-0.5378,9.8089-2.2938,13.4554
				c-3.2943,6.8408-8.1988,3.7312-13.8484,2.721c-0.7498-0.1341-1.2839,0.8718-0.5447,1.2922
				c6.3336,3.6023,12.9992,4.8906,16.4625-2.977c2.3286-5.2899,5.2314-15.6709-0.9158-19.6541
				c-4.9326-3.1961-11.8608,2.6797-14.5322,6.5556c-3.0314,4.3982-6.2437,12.0229-0.9533,15.9708
				C338.5109,185.7437,339.1609,184.8736,338.6842,184.4233L338.6842,184.4233z"/>
		</g>
		<g>
			<path class="st0" d="M322.1641,165.552c-7.2336-6.8405,7.9577-29.0431,14.6558-18.508
				c2.5156,3.9566,0.7893,10.2235-0.6682,14.3577c-1.1261,3.1942-3.0735,6.1452-6.9238,5.7172
				c-2.4832-0.2761-4.8369-1.3882-7.2901-1.8345c-0.7497-0.1364-1.2845,0.8745-0.5448,1.2922
				c6.3289,3.5741,13.2544,4.9546,16.4934-3.1627c2.228-5.5836,4.6248-16.0964-1.4815-20.199
				c-6.2236-4.1814-12.1358,2.0485-14.7973,7.1628c-2.381,4.5751-5.2122,12.2909-0.1534,16.0943
				C321.9893,166.8743,322.6404,166.0023,322.1641,165.552L322.1641,165.552z"/>
		</g>
		<g>
			<path class="st0" d="M244.9071,253.8272c-7.2336-6.8405,7.9577-29.0431,14.6558-18.508
				c2.5156,3.9566,0.7893,10.2235-0.6682,14.3577c-1.1261,3.1942-3.0735,6.1452-6.9238,5.7172
				c-2.4833-0.2761-4.8369-1.3882-7.2901-1.8345c-0.7496-0.1364-1.2844,0.8745-0.5448,1.2922
				c6.3289,3.5741,13.2544,4.9546,16.4934-3.1627c2.228-5.5836,4.6248-16.0964-1.4815-20.199
				c-6.2236-4.1814-12.1358,2.0485-14.7973,7.1627c-2.381,4.5751-5.2122,12.2909-0.1534,16.0943
				C244.7323,255.1495,245.3833,254.2775,244.9071,253.8272L244.9071,253.8272z"/>
		</g>
		<g>
			<path class="st0" d="M283.7475,344.8864c-7.2336-6.8404,7.9576-29.0432,14.6558-18.5079
				c2.5156,3.9566,0.7893,10.2235-0.6682,14.3577c-1.1261,3.1942-3.0735,6.1452-6.9238,5.7172
				c-2.4833-0.276-4.8369-1.3882-7.2901-1.8345c-0.7496-0.1364-1.2844,0.8745-0.5448,1.2922
				c6.3289,3.5741,13.2545,4.9546,16.4934-3.1627c2.228-5.5837,4.6248-16.0963-1.4815-20.1989
				c-6.2237-4.1815-12.1357,2.0484-14.7973,7.1628c-2.381,4.575-5.2122,12.2909-0.1534,16.0942
				C283.5727,346.2087,284.2237,345.3368,283.7475,344.8864L283.7475,344.8864z"/>
		</g>
		<g>
			<path class="st0" d="M221.1442,242.8477c-4.8027,0.5422-8.0405-5.2576-9.7058-9.0091c-0.8216-1.8508-1.5552-3.8588-1.8951-5.8645
				c-0.8722-5.1473,3.2533-10.6834,9.2573-7.428c3.6888,2.0001,7.398,6.8976,9.0076,10.6964
				c2.7107,6.3973-3.2037,8.3597-7.1639,11.6911c-0.5282,0.4443,0.0358,1.4315,0.6878,1.1816
				c6.0193-2.3068,11.7434-5.9549,8.8894-13.2101c-2.1943-5.5783-8.9291-14.0204-15.6247-13.5309
				c-14.3935,1.0523-4.9686,29.2982,6.7031,26.6241C221.93,243.854,221.8091,242.7726,221.1442,242.8477L221.1442,242.8477z"/>
		</g>
	</g>
</g>
</svg>
